<svg width="24" height="24" viewBox="0 0 24 24" fill="none" xmlns="http://www.w3.org/2000/svg">
<path fill-rule="evenodd" clip-rule="evenodd" d="M11.031 12.801L5.66498 2.70799C5.63415 2.65001 5.61504 2.58652 5.60875 2.52116C5.60245 2.4558 5.6091 2.38984 5.62829 2.32704C5.66707 2.20022 5.75463 2.094 5.87172 2.03174C5.98882 1.96948 6.12585 1.95628 6.25267 1.99506C6.31546 2.01425 6.37386 2.04563 6.42453 2.0874C6.4752 2.12917 6.51715 2.18051 6.54797 2.23849L11.9145 12.3315L12.6755 11.9265C12.9074 11.8032 13.1614 11.7268 13.4229 11.7016C13.6843 11.6765 13.9482 11.7031 14.1994 11.7799C14.4506 11.8568 14.6842 11.9823 14.8868 12.1495C15.0895 12.3166 15.2572 12.522 15.3805 12.754L15.7045 13.3635L19.1395 18.3905L14.7705 20.713L13.257 17.7215L12.365 18.173L13.8875 21.183L12.0145 22.1785L9.76698 16.5195L9.44347 15.9105C9.32015 15.6786 9.24371 15.4246 9.21853 15.1632C9.19334 14.9017 9.21991 14.6379 9.2967 14.3867C9.3735 14.1355 9.49902 13.9019 9.6661 13.6992C9.83318 13.4966 10.0385 13.3288 10.2705 13.2055L11.031 12.801ZM13.1445 12.81L10.7395 14.0885C10.6235 14.1501 10.5208 14.234 10.4373 14.3354C10.3537 14.4367 10.291 14.5535 10.2526 14.6791C10.2142 14.8047 10.2009 14.9366 10.2135 15.0673C10.2261 15.1981 10.2643 15.325 10.326 15.441L10.6495 16.05L14.821 13.832L14.497 13.2235C14.4353 13.1075 14.3514 13.0048 14.2501 12.9213C14.1488 12.8378 14.032 12.775 13.9064 12.7366C13.7808 12.6982 13.6489 12.6849 13.5181 12.6975C13.3874 12.7101 13.2604 12.7483 13.1445 12.81Z" fill="#231F20"/>
<path d="M8.884 17.68C8.79918 17.5781 8.67737 17.5141 8.54535 17.502C8.41334 17.4899 8.28192 17.5307 8.18 17.6155H8.181L8.1755 17.6195L8.1445 17.6435C8.09958 17.6771 8.05373 17.7094 8.007 17.7405C7.883 17.823 7.698 17.9355 7.46 18.0485C6.84825 18.3425 6.17874 18.4967 5.5 18.5C5.36739 18.5 5.24021 18.5526 5.14645 18.6464C5.05268 18.7402 5 18.8674 5 19C5 19.1326 5.05268 19.2598 5.14645 19.3535C5.24021 19.4473 5.36739 19.5 5.5 19.5C6.3275 19.4968 7.14391 19.3094 7.89 18.9515C8.12259 18.841 8.34715 18.7144 8.562 18.5725C8.64236 18.5187 8.72075 18.462 8.797 18.4025L8.812 18.391L8.817 18.387L8.8185 18.385H8.8195L8.82 18.384C8.92181 18.2991 8.98574 18.1772 8.99774 18.0452C9.00974 17.9132 8.96883 17.7818 8.884 17.68ZM9.916 20.2225C9.95245 20.2771 9.97778 20.3384 9.99055 20.4028C10.0033 20.4672 10.0033 20.5335 9.9904 20.5979C9.97754 20.6623 9.95212 20.7235 9.91559 20.7781C9.87906 20.8327 9.83214 20.8795 9.7775 20.916L9.7765 20.917L9.7745 20.918L9.7695 20.921L9.754 20.931L9.697 20.9675C9.39774 21.1509 9.08673 21.3144 8.766 21.457C8.175 21.7195 7.3505 22 6.5 22C6.36739 22 6.24021 21.9473 6.14645 21.8535C6.05268 21.7598 6 21.6326 6 21.5C6 21.3674 6.05268 21.2402 6.14645 21.1464C6.24021 21.0526 6.36739 21 6.5 21C7.149 21 7.825 20.7805 8.3595 20.543C8.63814 20.4191 8.90838 20.2771 9.1685 20.118C9.18817 20.1063 9.2025 20.0973 9.2115 20.091L9.2215 20.085L9.2225 20.084C9.27713 20.0475 9.3384 20.0222 9.40282 20.0094C9.46724 19.9967 9.53354 19.9967 9.59794 20.0096C9.66234 20.0224 9.72357 20.0479 9.77815 20.0844C9.83272 20.1209 9.87956 20.1678 9.916 20.2225Z" fill="#231F20"/>
</svg>
