<svg width="18" height="19" viewBox="0 0 18 19" fill="none" xmlns="http://www.w3.org/2000/svg">
<path d="M3.74999 6.3125C3.63881 6.3126 3.53016 6.34564 3.43774 6.40746C3.34533 6.46927 3.27331 6.55708 3.23078 6.65981C3.18825 6.76253 3.17711 6.87555 3.19877 6.9846C3.22043 7.09365 3.27393 7.19383 3.35249 7.2725L8.60249 12.5225C8.70796 12.6278 8.85093 12.687 8.99999 12.687C9.14906 12.687 9.29202 12.6278 9.39749 12.5225L14.6475 7.2725C14.7261 7.19383 14.7796 7.09365 14.8012 6.9846C14.8229 6.87555 14.8117 6.76253 14.7692 6.65981C14.7267 6.55708 14.6547 6.46927 14.5622 6.40746C14.4698 6.34564 14.3612 6.3126 14.25 6.3125H3.74999Z" fill="#F8F8F8"/>
</svg>
