<svg width="18" height="18" viewBox="0 0 18 18" fill="none" xmlns="http://www.w3.org/2000/svg">
<path d="M14.25 2.25H3.75C2.92157 2.25 2.25 2.92157 2.25 3.75V14.25C2.25 15.0784 2.92157 15.75 3.75 15.75H14.25C15.0784 15.75 15.75 15.0784 15.75 14.25V3.75C15.75 2.92157 15.0784 2.25 14.25 2.25Z" stroke="#282828" stroke-linecap="round" stroke-linejoin="round"/>
<path d="M8.25 6.75H11.25C11.6478 6.75 12.0294 6.59196 12.3107 6.31066C12.592 6.02936 12.75 5.64782 12.75 5.25V2.25" stroke="#282828" stroke-linecap="round" stroke-linejoin="round"/>
<path d="M6.75 8.25C7.57843 8.25 8.25 7.57843 8.25 6.75C8.25 5.92157 7.57843 5.25 6.75 5.25C5.92157 5.25 5.25 5.92157 5.25 6.75C5.25 7.57843 5.92157 8.25 6.75 8.25Z" stroke="#282828" stroke-linecap="round" stroke-linejoin="round"/>
<path d="M5.25 15.75V12.75C5.25 12.3522 5.40804 11.9706 5.68934 11.6893C5.97064 11.408 6.35218 11.25 6.75 11.25H9.75" stroke="#282828" stroke-linecap="round" stroke-linejoin="round"/>
<path d="M11.25 12.75C12.0784 12.75 12.75 12.0784 12.75 11.25C12.75 10.4216 12.0784 9.75 11.25 9.75C10.4216 9.75 9.75 10.4216 9.75 11.25C9.75 12.0784 10.4216 12.75 11.25 12.75Z" stroke="#282828" stroke-linecap="round" stroke-linejoin="round"/>
</svg>
