<svg width="33" height="33" viewBox="0 0 33 33" fill="none" xmlns="http://www.w3.org/2000/svg">
<path d="M15.1668 11.1667C17.8334 7.16669 12.5001 7.16669 15.1668 3.16669" stroke="#231F20" stroke-width="2" stroke-linecap="round" stroke-linejoin="round"/>
<path d="M21.1668 11.1667C23.8334 7.16669 18.5001 7.16669 21.1668 3.16669" stroke="#231F20" stroke-width="2" stroke-linecap="round" stroke-linejoin="round"/>
<path d="M8.5 13.8333H8.51333" stroke="#231F20" stroke-width="2" stroke-linecap="round" stroke-linejoin="round"/>
<path d="M8.5 19.1667H8.51333" stroke="#231F20" stroke-width="2" stroke-linecap="round" stroke-linejoin="round"/>
<path d="M13.8333 21.8333V16.5" stroke="#231F20" stroke-width="2" stroke-linecap="round" stroke-linejoin="round"/>
<path d="M19.1667 21.8333V16.5" stroke="#231F20" stroke-width="2" stroke-linecap="round" stroke-linejoin="round"/>
<path d="M24.5 21.8333V16.5" stroke="#231F20" stroke-width="2" stroke-linecap="round" stroke-linejoin="round"/>
<path d="M27.1667 8.5C27.874 8.5 28.5523 8.78095 29.0524 9.28105C29.5525 9.78115 29.8334 10.4594 29.8334 11.1667V24.5C29.8334 25.2072 29.5525 25.8855 29.0524 26.3856C28.5523 26.8857 27.874 27.1667 27.1667 27.1667H5.83341C5.12617 27.1667 4.44789 26.8857 3.9478 26.3856C3.4477 25.8855 3.16675 25.2072 3.16675 24.5V11.1667C3.16675 10.4594 3.4477 9.78115 3.9478 9.28105C4.44789 8.78095 5.12617 8.5 5.83341 8.5H9.83341" stroke="#231F20" stroke-width="2" stroke-linecap="round" stroke-linejoin="round"/>
<path d="M7.16675 27.1667V29.8334" stroke="#231F20" stroke-width="2" stroke-linecap="round" stroke-linejoin="round"/>
<path d="M25.8333 27.1667V29.8334" stroke="#231F20" stroke-width="2" stroke-linecap="round" stroke-linejoin="round"/>
</svg>
