<svg width="19" height="19" viewBox="0 0 19 19" fill="none" xmlns="http://www.w3.org/2000/svg">
<path d="M8 9.50002V7.22302" stroke="#757575" stroke-linecap="round" stroke-linejoin="round"/>
<path d="M11 9.50002V7.22302" stroke="#757575" stroke-linecap="round" stroke-linejoin="round"/>
<path d="M11.75 9.5C11.9489 9.5 12.1397 9.57902 12.2803 9.71967C12.421 9.86032 12.5 10.0511 12.5 10.25V11.75C12.5 12.1478 12.342 12.5294 12.0607 12.8107C11.7794 13.092 11.3978 13.25 11 13.25H8C7.60218 13.25 7.22064 13.092 6.93934 12.8107C6.65804 12.5294 6.5 12.1478 6.5 11.75V10.25C6.5 10.0511 6.57902 9.86032 6.71967 9.71967C6.86032 9.57902 7.05109 9.5 7.25 9.5H11.75Z" stroke="#757575" stroke-linecap="round" stroke-linejoin="round"/>
<path d="M6.875 16.25H4.25C3.85218 16.25 3.47064 16.0919 3.18934 15.8106C2.90804 15.5293 2.75 15.1478 2.75 14.75V7.99998C2.74995 7.78178 2.7975 7.56619 2.88934 7.36826C2.98118 7.17033 3.1151 6.99482 3.28175 6.85398L8.53175 2.35473C8.80249 2.12591 9.14552 2.00037 9.5 2.00037C9.85448 2.00037 10.1975 2.12591 10.4683 2.35473L15.7183 6.85398C15.8849 6.99482 16.0188 7.17033 16.1107 7.36826C16.2025 7.56619 16.2501 7.78178 16.25 7.99998V14.75C16.25 15.1478 16.092 15.5293 15.8107 15.8106C15.5294 16.0919 15.1478 16.25 14.75 16.25H11C10.6022 16.25 10.2206 16.0919 9.93934 15.8106C9.65804 15.5293 9.5 15.1478 9.5 14.75V13.25" stroke="#757575" stroke-linecap="round" stroke-linejoin="round"/>
</svg>
