<svg width="24" height="28" viewBox="0 0 24 28" fill="none" xmlns="http://www.w3.org/2000/svg">
<path d="M12 0.0714417C14.9553 0.0714417 17.7895 1.24542 19.8792 3.33511C21.9689 5.4248 23.1429 8.25903 23.1429 11.2143C23.1429 15.9229 19.8343 21.0543 13.3029 26.6634C12.9397 26.9754 12.4767 27.1468 11.9979 27.1464C11.5191 27.1459 11.0564 26.9738 10.6937 26.6612L10.2617 26.2863C4.01946 20.8234 0.857178 15.8177 0.857178 11.2143C0.857178 8.25903 2.03115 5.4248 4.12085 3.33511C6.21054 1.24542 9.04476 0.0714417 12 0.0714417ZM12 1.78573C9.49942 1.78573 7.10123 2.77909 5.33303 4.54729C3.56483 6.31549 2.57146 8.71369 2.57146 11.2143C2.57146 15.2166 5.48346 19.828 11.3875 24.9937L11.8137 25.3629C11.8656 25.4074 11.9317 25.432 12 25.432C12.0684 25.432 12.1345 25.4074 12.1863 25.3629C18.376 20.0463 21.4286 15.3114 21.4286 11.2143C21.4286 9.97612 21.1847 8.75007 20.7109 7.60614C20.2371 6.46221 19.5426 5.42282 18.667 4.54729C17.7915 3.67177 16.7521 2.97727 15.6082 2.50343C14.4643 2.0296 13.2382 1.78573 12 1.78573ZM12 6.92859C13.1367 6.92859 14.2268 7.38011 15.0305 8.18384C15.8342 8.98757 16.2857 10.0777 16.2857 11.2143C16.2857 12.3509 15.8342 13.441 15.0305 14.2448C14.2268 15.0485 13.1367 15.5 12 15.5C10.8634 15.5 9.7733 15.0485 8.96958 14.2448C8.16585 13.441 7.71432 12.3509 7.71432 11.2143C7.71432 10.0777 8.16585 8.98757 8.96958 8.18384C9.7733 7.38011 10.8634 6.92859 12 6.92859ZM12 8.64287C11.318 8.64287 10.664 8.91379 10.1818 9.39602C9.69952 9.87826 9.42861 10.5323 9.42861 11.2143C9.42861 11.8963 9.69952 12.5503 10.1818 13.0326C10.664 13.5148 11.318 13.7857 12 13.7857C12.682 13.7857 13.3361 13.5148 13.8183 13.0326C14.3005 12.5503 14.5715 11.8963 14.5715 11.2143C14.5715 10.5323 14.3005 9.87826 13.8183 9.39602C13.3361 8.91379 12.682 8.64287 12 8.64287Z" fill="#FFCC04"/>
</svg>
