<svg width="18" height="19" viewBox="0 0 18 19" fill="none" xmlns="http://www.w3.org/2000/svg">
<path d="M11.25 17C11.0511 17 10.8603 16.921 10.7197 16.7803C10.579 16.6397 10.5 16.4489 10.5 16.25V13.25C10.5 13.1265 10.5304 13.005 10.5887 12.8962C10.6469 12.7873 10.7311 12.6945 10.8337 12.626L13.0837 11.126C13.207 11.0438 13.3518 10.9999 13.5 10.9999C13.6482 10.9999 13.793 11.0438 13.9163 11.126L16.1663 12.626C16.2689 12.6945 16.3531 12.7873 16.4113 12.8962C16.4696 13.005 16.5 13.1265 16.5 13.25V16.25C16.5 16.4489 16.421 16.6397 16.2803 16.7803C16.1397 16.921 15.9489 17 15.75 17H11.25Z" stroke="#757575" stroke-linecap="round" stroke-linejoin="round"/>
<path d="M13.5 8C13.5 6.4087 12.8679 4.88258 11.7426 3.75736C10.6174 2.63214 9.0913 2 7.5 2C5.9087 2 4.38258 2.63214 3.25736 3.75736C2.13214 4.88258 1.5 6.4087 1.5 8C1.5 11.7448 5.65425 15.6447 7.04925 16.8492C7.17928 16.9468 7.33747 16.9994 7.5 16.9993" stroke="#757575" stroke-linecap="round" stroke-linejoin="round"/>
<path d="M13.5 17V14.75" stroke="#757575" stroke-linecap="round" stroke-linejoin="round"/>
<path d="M7.5 10.25C8.74264 10.25 9.75 9.24264 9.75 8C9.75 6.75736 8.74264 5.75 7.5 5.75C6.25736 5.75 5.25 6.75736 5.25 8C5.25 9.24264 6.25736 10.25 7.5 10.25Z" stroke="#757575" stroke-linecap="round" stroke-linejoin="round"/>
</svg>
