<svg width="24" height="24" viewBox="0 0 24 24" fill="none" xmlns="http://www.w3.org/2000/svg">
<path d="M20.5192 5.29124C20.5149 5.28737 20.5109 5.2833 20.507 5.27906L16.2967 1.31249C16.0501 1.06964 15.7177 0.933981 15.3716 0.935034C15.0255 0.936088 14.6939 1.07377 14.4489 1.31812L10.1364 5.59499L9.85511 5.31374C9.44317 4.95243 8.90912 4.76149 8.36148 4.77974C7.81383 4.79798 7.29368 5.02404 6.9067 5.41197C6.51972 5.79991 6.29494 6.32062 6.27805 6.86831C6.26115 7.41599 6.4534 7.94957 6.81574 8.36062L7.08292 8.63156L5.07199 10.6322C4.95009 10.7541 4.8534 10.8988 4.78744 11.058C4.72147 11.2173 4.68752 11.3879 4.68752 11.5603C4.68752 11.7327 4.72147 11.9034 4.78744 12.0626C4.8534 12.2219 4.95009 12.3666 5.07199 12.4884L6.26167 13.6781C6.50766 13.9231 6.84072 14.0607 7.18792 14.0607C7.53512 14.0607 7.86818 13.9231 8.11417 13.6781L10.1157 11.7047L11.3823 12.9891C11.3997 13.0065 11.4136 13.0272 11.423 13.0499C11.4324 13.0727 11.4373 13.0971 11.4373 13.1217C11.4373 13.1464 11.4324 13.1708 11.423 13.1935C11.4136 13.2163 11.3997 13.237 11.3823 13.2544L5.31855 19.3866C5.10167 19.5826 4.92694 19.8208 4.80497 20.0865C4.68301 20.3522 4.61635 20.64 4.60907 20.9323C4.60178 21.2246 4.65401 21.5153 4.76259 21.7867C4.87117 22.0582 5.03382 22.3048 5.24065 22.5114C5.44749 22.718 5.69419 22.8805 5.96576 22.9888C6.23733 23.0971 6.52809 23.1491 6.82037 23.1415C7.11265 23.134 7.40034 23.0671 7.66595 22.9448C7.93156 22.8226 8.16954 22.6477 8.36542 22.4306L16.6782 14.0531C16.9238 13.8071 17.0618 13.4736 17.0618 13.1259C17.0618 12.7783 16.9238 12.4448 16.6782 12.1987L13.1992 8.68499L14.5445 7.36687C14.5796 7.33195 14.6271 7.31235 14.6767 7.31235C14.7262 7.31235 14.7737 7.33195 14.8089 7.36687L14.8154 7.37343L18.3207 10.6875C18.5675 10.9311 18.9007 11.0671 19.2474 11.0659C19.5941 11.0647 19.9263 10.9263 20.1714 10.6809L20.5192 10.3322C21.1873 9.66408 21.5626 8.75795 21.5626 7.81312C21.5626 6.86829 21.1873 5.96215 20.5192 5.29406V5.29124ZM7.32199 12.885C7.30457 12.9024 7.28389 12.9163 7.26113 12.9257C7.23837 12.9351 7.21397 12.94 7.18933 12.94C7.16469 12.94 7.14029 12.9351 7.11753 12.9257C7.09477 12.9163 7.07409 12.9024 7.05667 12.885L5.86699 11.6934C5.84961 11.6759 5.83586 11.6551 5.82653 11.6323C5.8172 11.6094 5.81247 11.585 5.81261 11.5603C5.81257 11.5113 5.83175 11.4641 5.86605 11.4291L7.87511 9.43312L9.32824 10.9069L7.32199 12.885ZM15.8814 13.26L7.56855 21.6366C7.47571 21.7437 7.36178 21.8305 7.23388 21.8916C7.10597 21.9527 6.96684 21.9868 6.82518 21.9918C6.68351 21.9967 6.54234 21.9724 6.41049 21.9203C6.27864 21.8683 6.15895 21.7896 6.05887 21.6892C5.9588 21.5888 5.8805 21.4688 5.82886 21.3368C5.77722 21.2048 5.75335 21.0636 5.75875 20.9219C5.76414 20.7803 5.79868 20.6412 5.86021 20.5135C5.92174 20.3858 6.00894 20.2722 6.11636 20.1797L12.1792 14.0512C12.4239 13.8053 12.5613 13.4724 12.5613 13.1255C12.5613 12.7785 12.4239 12.4456 12.1792 12.1997L7.61355 7.56843C7.44157 7.37169 7.3507 7.117 7.35929 6.85583C7.36789 6.59466 7.47531 6.34649 7.65984 6.16148C7.84438 5.97647 8.09227 5.86841 8.35342 5.85914C8.61456 5.84987 8.86949 5.94009 9.06667 6.11156L15.8823 12.9919C15.9 13.0094 15.9139 13.0302 15.9235 13.0532C15.933 13.0762 15.9379 13.1008 15.9378 13.1257C15.9377 13.1505 15.9326 13.1751 15.923 13.198C15.9133 13.2209 15.8991 13.2417 15.8814 13.2591V13.26ZM19.7251 9.53531L19.3773 9.88312C19.3599 9.90055 19.3392 9.91438 19.3164 9.92382C19.2937 9.93325 19.2693 9.93811 19.2446 9.93811C19.22 9.93811 19.1956 9.93325 19.1728 9.92382C19.1501 9.91438 19.1294 9.90055 19.112 9.88312L19.1007 9.87187L15.5917 6.56249C15.3451 6.32297 15.0143 6.18977 14.6705 6.19153C14.3268 6.19328 13.9974 6.32985 13.7532 6.57187L12.4079 7.88624L10.9314 6.39562L15.2439 2.11687C15.2613 2.09929 15.282 2.08535 15.3049 2.07583C15.3277 2.06631 15.3522 2.06141 15.377 2.06141C15.4017 2.06141 15.4262 2.06631 15.4491 2.07583C15.4719 2.08535 15.4927 2.09929 15.5101 2.11687L15.5214 2.12906L19.7298 6.09374C20.1843 6.5515 20.4389 7.17078 20.4377 7.81588C20.4364 8.46098 20.1795 9.07928 19.7232 9.53531H19.7251Z" fill="#231F20"/>
</svg>
