<svg width="33" height="33" viewBox="0 0 33 33" fill="none" xmlns="http://www.w3.org/2000/svg">
<path d="M4.5 8.5H8.5" stroke="#231F20" stroke-width="2" stroke-linecap="round" stroke-linejoin="round"/>
<path d="M23.1667 8.5H23.1801" stroke="#231F20" stroke-width="2" stroke-linecap="round" stroke-linejoin="round"/>
<path d="M25.8333 3.16669H7.16667C5.69391 3.16669 4.5 4.36059 4.5 5.83335V27.1667C4.5 28.6394 5.69391 29.8334 7.16667 29.8334H25.8333C27.3061 29.8334 28.5 28.6394 28.5 27.1667V5.83335C28.5 4.36059 27.3061 3.16669 25.8333 3.16669Z" stroke="#231F20" stroke-width="2" stroke-linecap="round" stroke-linejoin="round"/>
<path d="M16.4999 24.5C20.1818 24.5 23.1666 21.5153 23.1666 17.8334C23.1666 14.1515 20.1818 11.1667 16.4999 11.1667C12.818 11.1667 9.83325 14.1515 9.83325 17.8334C9.83325 21.5153 12.818 24.5 16.4999 24.5Z" stroke="#231F20" stroke-width="2" stroke-linecap="round" stroke-linejoin="round"/>
<path d="M16.5001 24.5C17.3841 24.5 18.232 24.1488 18.8571 23.5237C19.4822 22.8986 19.8334 22.0507 19.8334 21.1667C19.8334 20.2826 19.4822 19.4348 18.8571 18.8097C18.232 18.1845 17.3841 17.8334 16.5001 17.8334C15.616 17.8334 14.7682 17.4822 14.1431 16.857C13.5179 16.2319 13.1667 15.3841 13.1667 14.5C13.1667 13.616 13.5179 12.7681 14.1431 12.143C14.7682 11.5179 15.616 11.1667 16.5001 11.1667" stroke="#231F20" stroke-width="2" stroke-linecap="round" stroke-linejoin="round"/>
</svg>
